<svg
 xmlns="http://www.w3.org/2000/svg"
 xmlns:xlink="http://www.w3.org/1999/xlink"
 width="1558px" height="718px">
<path fill-rule="evenodd"  fill="rgb(210, 144, 1)"
 d="M1554.198,3.326 C1558.307,7.433 1558.307,14.093 1554.198,18.200 L1295.709,276.634 C1291.600,280.741 1284.938,280.741 1280.829,276.634 C1276.721,272.526 1276.721,265.867 1280.829,261.759 L1539.319,3.326 C1543.428,-0.782 1550.090,-0.782 1554.198,3.326 Z"/>
<path fill-rule="evenodd"  fill="rgb(210, 144, 1)"
 d="M1502.453,302.430 C1506.562,306.538 1506.562,313.197 1502.453,317.305 L1335.963,483.738 C1331.854,487.846 1325.192,487.846 1321.083,483.738 C1316.975,479.631 1316.975,472.971 1321.083,468.864 L1487.573,302.430 C1491.682,298.323 1498.344,298.323 1502.453,302.430 Z"/>
<path fill-rule="evenodd"  fill="rgb(210, 144, 1)"
 d="M1314.647,349.608 C1318.756,353.716 1318.756,360.375 1314.647,364.483 L1201.157,477.916 C1197.049,482.024 1190.387,482.024 1186.278,477.916 C1182.169,473.809 1182.169,467.149 1186.278,463.041 L1299.768,349.608 C1303.877,345.501 1310.538,345.501 1314.647,349.608 Z"/>
<path fill-rule="evenodd"  fill="rgb(210, 144, 1)"
 d="M133.102,529.207 C137.211,533.314 137.211,539.974 133.102,544.081 L90.613,586.514 C86.504,590.622 79.842,590.622 75.733,586.514 C71.624,582.407 71.624,575.748 75.733,571.640 L118.223,529.207 C122.332,525.099 128.993,525.099 133.102,529.207 Z"/>
<path fill-rule="evenodd"  fill="rgb(210, 144, 1)"
 d="M1378.102,86.207 C1382.211,90.314 1382.211,96.974 1378.102,101.081 L1335.612,143.514 C1331.504,147.622 1324.842,147.622 1320.733,143.514 C1316.624,139.407 1316.624,132.747 1320.733,128.640 L1363.222,86.207 C1367.331,82.100 1373.993,82.100 1378.102,86.207 Z"/>
<path fill-rule="evenodd"  fill="rgb(210, 144, 1)"
 d="M241.301,297.407 C245.410,301.515 245.410,308.174 241.301,312.282 L18.811,534.715 C14.702,538.822 8.040,538.822 3.931,534.715 C-0.177,530.607 -0.177,523.948 3.931,519.841 L226.421,297.407 C230.530,293.300 237.192,293.300 241.301,297.407 Z"/>
<path fill-rule="evenodd"  fill="rgb(210, 144, 1)"
 d="M263.647,82.609 C267.756,86.716 267.756,93.375 263.647,97.483 L150.157,210.916 C146.049,215.024 139.387,215.024 135.278,210.916 C131.169,206.809 131.169,200.149 135.278,196.042 L248.768,82.609 C252.877,78.501 259.538,78.501 263.647,82.609 Z"/>
<path fill-rule="evenodd"  fill="rgb(210, 144, 1)"
 d="M97.102,364.207 C101.211,368.314 101.211,374.974 97.102,379.081 L84.612,391.514 C80.504,395.622 73.842,395.622 69.733,391.514 C65.624,387.407 65.624,380.748 69.733,376.640 L82.222,364.207 C86.332,360.099 92.993,360.099 97.102,364.207 Z"/>
<path fill-rule="evenodd"  opacity="0.302" fill="rgb(210, 144, 1)"
 d="M256.647,514.609 C260.756,518.716 260.756,525.376 256.647,529.483 L71.157,714.916 C67.049,719.024 60.387,719.024 56.278,714.916 C52.169,710.809 52.169,704.149 56.278,700.041 L241.768,514.609 C245.877,510.501 252.538,510.501 256.647,514.609 Z"/>
<path fill-rule="evenodd"  opacity="0.302" fill="rgb(210, 144, 1)"
 d="M1526.647,396.609 C1530.756,400.716 1530.756,407.376 1526.647,411.483 L1341.157,596.916 C1337.049,601.024 1330.387,601.024 1326.278,596.916 C1322.169,592.809 1322.169,586.149 1326.278,582.041 L1511.768,396.609 C1515.877,392.501 1522.538,392.501 1526.647,396.609 Z"/>
<path fill-rule="evenodd"  opacity="0.302" fill="rgb(210, 144, 1)"
 d="M1207.647,102.609 C1211.756,106.716 1211.756,113.376 1207.647,117.483 L1022.157,302.916 C1018.049,307.024 1011.387,307.024 1007.278,302.916 C1003.169,298.809 1003.169,292.149 1007.278,288.041 L1192.768,102.609 C1196.877,98.501 1203.538,98.501 1207.647,102.609 Z"/>
<path fill-rule="evenodd"  opacity="0.302" fill="rgb(210, 144, 1)"
 d="M459.647,85.609 C463.756,89.716 463.756,96.375 459.647,100.483 L388.157,171.916 C384.049,176.024 377.387,176.024 373.278,171.916 C369.169,167.809 369.169,161.149 373.278,157.041 L444.767,85.609 C448.877,81.501 455.538,81.501 459.647,85.609 Z"/>
<path fill-rule="evenodd"  opacity="0.302" fill="rgb(210, 144, 1)"
 d="M342.647,307.608 C346.756,311.716 346.756,318.375 342.647,322.483 L271.157,393.916 C267.049,398.024 260.387,398.024 256.278,393.916 C252.169,389.809 252.169,383.149 256.278,379.042 L327.768,307.608 C331.877,303.501 338.538,303.501 342.647,307.608 Z"/>
</svg>