<svg xmlns="http://www.w3.org/2000/svg" xmlns:xlink="http://www.w3.org/1999/xlink" width="17" height="17" viewBox="0 0 17 17"><defs><path id="4sw7a" d="M54 105c0 .693-.323 1-1 1 0 0-13 0-13.927.002-.955.001-1.126-.31-1.073-1.002V94c.007-.564.885-.923 1.438-1.054L52.47 89.87c.651-.153 1.302.269 1.455.944l.543 2.407-10.643 2.512L54 96zm-4.55-13.441l2.107 1.405 1.625-.383-2.108-1.406zm-3.28.775l2.108 1.405 1.625-.384-2.107-1.406zm-3.198.754l2.107 1.406 1.625-.383-2.107-1.406zm-3.27.772l2.107 1.406 1.625-.384-2.107-1.406zM53 97H39v8h14zm-5 4l-3 2v-4z"/></defs><g><g transform="translate(-38 -89)"><use fill="#fff" xlink:href="#4sw7a"/></g></g></svg>