<svg xmlns="http://www.w3.org/2000/svg" xmlns:xlink="http://www.w3.org/1999/xlink" width="91" height="13" viewBox="0 0 91 13"><defs><path id="p5vza" d="M100.98 461.969l-.043-.137v.17l.043-.033 1.582 5.03-4.07-3.124.155-.119h-.31l.155.119-4.08 3.125 1.577-5.047.073.057v-.292l-.073.235L92 458.89h4.947l1.529-4.89 1.537 4.89H105zm18 0l-.043-.137v.17l.043-.033 1.582 5.03-4.07-3.124.155-.119h-.31l.155.119-4.08 3.125 1.577-5.047.073.057v-.292l-.073.235-3.99-3.063h4.947l1.528-4.89 1.538 4.89H123zm20 0l-.043-.137v.17l.043-.033 1.582 5.03-4.07-3.124.155-.119h-.31l.155.119-4.08 3.125 1.577-5.047.073.057v-.292l-.073.235-3.99-3.063h4.947l1.529-4.89 1.537 4.89H143zm20 0l-.043-.137v.17l.043-.033 1.582 5.03-4.07-3.124.155-.119h-.31l.155.119-4.08 3.125 1.577-5.047.073.057v-.292l-.073.235-3.99-3.063h4.947l1.529-4.89 1.537 4.89H163zm20 0l-.043-.137v.17l.043-.033 1.582 5.03-4.07-3.124.155-.119h-.31l.155.119-4.08 3.125 1.577-5.047.073.057v-.292l-.073.235-3.99-3.063h4.947l1.528-4.89 1.538 4.89H183z"/></defs><g><g transform="translate(-92 -454)"><use fill="#ffd564" xlink:href="#p5vza"/></g></g></svg>