<?xml version="1.0" standalone="no"?>
<!DOCTYPE svg PUBLIC "-//W3C//DTD SVG 20010904//EN"
 "http://www.w3.org/TR/2001/REC-SVG-20010904/DTD/svg10.dtd">
<svg version="1.0" xmlns="http://www.w3.org/2000/svg"
 width="500.000000pt" height="500.000000pt" viewBox="0 0 500.000000 500.000000"
 preserveAspectRatio="xMidYMid meet">
<metadata>
Created by potrace 1.11, written by Peter Selinger 2001-2013
</metadata>
<g transform="translate(0.000000,500.000000) scale(0.100000,-0.100000)"
fill="#000000" stroke="none">
<path d="M3509 4849 c-212 -18 -434 -109 -600 -247 -109 -91 -158 -146 -233
-266 -193 -307 -223 -681 -81 -1016 15 -36 36 -80 47 -97 l20 -33 -294 0 -293
0 -1 143 c-1 118 -6 159 -28 242 -142 547 -717 854 -1254 671 -162 -56 -340
-183 -439 -314 -157 -208 -225 -442 -202 -693 29 -311 204 -581 482 -744 l67
-39 0 -776 c0 -852 -1 -832 61 -957 82 -164 243 -275 432 -298 l57 -7 0 448
c0 430 1 451 21 494 25 55 80 114 134 143 l40 22 845 0 845 0 41 -22 c67 -36
101 -70 131 -131 l28 -57 3 -449 3 -448 52 6 c182 23 355 144 433 302 49 101
56 143 61 411 l5 253 90 0 90 0 328 -205 329 -205 65 0 66 0 0 760 0 760 -60
0 -60 0 -336 -210 -336 -210 -89 0 -89 0 0 278 c0 152 -3 286 -6 298 -5 18 1
23 43 34 82 22 266 116 350 179 374 282 532 780 386 1219 -165 496 -634 806
-1154 761z m218 -313 c1 -1 -33 -108 -74 -238 l-77 -237 -45 -11 c-25 -6 -60
-20 -78 -31 l-32 -20 -226 110 -227 110 39 47 c149 183 410 295 648 277 39 -3
71 -6 72 -7z m416 -197 c154 -139 239 -310 261 -525 l7 -61 -247 41 -248 41
-27 54 c-15 29 -35 61 -44 71 -16 18 -13 31 55 237 40 120 77 226 82 236 8 16
12 16 51 -7 23 -14 73 -53 110 -87z m-2931 -363 c121 -22 120 -11 20 -178
l-87 -146 -60 -4 c-35 -2 -80 -13 -107 -27 l-47 -22 -146 87 c-80 47 -145 90
-145 95 0 4 26 29 58 55 96 80 223 130 367 147 56 7 70 6 147 -7z m2088 -247
c0 -42 27 -107 66 -162 l36 -50 -44 -161 -45 -161 -136 -3 -135 -3 -57 72
c-67 87 -118 189 -146 295 -32 121 -29 307 6 412 3 8 79 -25 230 -100 208
-104 225 -115 225 -139z m-1615 -91 c63 -118 90 -282 69 -410 l-7 -38 -174 0
c-163 0 -175 1 -168 18 32 79 31 174 -5 258 l-21 51 88 147 88 147 47 -53 c26
-29 64 -83 83 -120z m2428 -107 c131 -22 241 -42 245 -45 3 -4 -16 -50 -43
-102 -89 -177 -258 -320 -452 -386 l-86 -29 -45 45 c-24 25 -68 62 -98 82 -30
21 -54 41 -54 46 0 5 19 74 42 154 28 99 47 147 57 150 44 13 122 59 151 89
19 19 36 35 39 35 4 0 113 -18 244 -39z m-3462 -79 l136 -81 7 -62 c7 -68 50
-160 95 -203 l27 -26 -61 -63 c-37 -39 -74 -91 -96 -136 l-35 -74 -75 74 c-58
57 -84 93 -116 159 -65 134 -87 272 -64 396 12 62 29 106 38 101 5 -2 69 -40
144 -85z m725 -840 c55 -28 119 -102 138 -159 36 -106 11 -209 -69 -290 -55
-55 -122 -83 -195 -83 -150 0 -280 130 -280 280 0 120 84 233 200 271 45 15
162 4 206 -19z m2084 -3 c99 -50 148 -131 149 -249 3 -262 -336 -379 -496
-171 -68 88 -78 195 -27 298 47 97 135 151 250 152 49 1 73 -5 124 -30z"/>
</g>
</svg>
