<?xml version="1.0" standalone="no"?>
<!DOCTYPE svg PUBLIC "-//W3C//DTD SVG 20010904//EN"
 "http://www.w3.org/TR/2001/REC-SVG-20010904/DTD/svg10.dtd">
<svg version="1.0" xmlns="http://www.w3.org/2000/svg"
 width="152.000000pt" height="152.000000pt" viewBox="0 0 152.000000 152.000000"
 preserveAspectRatio="xMidYMid meet">
<metadata>
Created by potrace 1.11, written by Peter Selinger 2001-2013
</metadata>
<g transform="translate(0.000000,152.000000) scale(0.100000,-0.100000)"
fill="#000000" stroke="none">
<path d="M1050 1351 c-35 -7 -538 -239 -680 -313 -41 -21 -90 -52 -108 -67
l-33 -29 25 -60 26 -61 0 -334 c0 -272 3 -337 14 -353 14 -18 31 -19 480 -19
368 0 468 3 478 13 17 17 25 700 9 731 -22 41 -94 51 -366 51 -244 0 -315 7
-315 32 0 6 8 16 17 23 15 11 12 15 -26 34 -23 12 -56 30 -73 41 l-31 19 27 7
c20 5 44 -3 97 -31 68 -35 73 -37 102 -23 l30 14 -73 38 c-67 35 -72 40 -55
52 16 12 28 8 94 -27 l76 -42 53 23 c28 12 52 26 52 31 0 5 -27 22 -60 39 -33
17 -60 34 -60 39 0 25 39 18 105 -18 l73 -39 43 20 c49 22 52 18 -46 73 -58
32 -59 34 -32 40 21 6 44 -1 97 -29 46 -24 77 -35 90 -31 33 11 23 23 -47 58
-63 32 -66 35 -44 46 19 11 32 7 96 -28 41 -22 77 -37 79 -32 3 4 -7 33 -21
64 -27 60 -29 61 -93 48z m-685 -449 c0 -18 -20 -15 -23 4 -3 10 1 15 10 12 7
-3 13 -10 13 -16z m305 -74 c-17 -24 -37 -51 -45 -61 -7 -11 -23 -17 -35 -15
-19 3 -18 7 22 61 30 41 48 57 66 57 l23 0 -31 -42z m150 37 c0 -3 -19 -30
-41 -60 -31 -41 -48 -55 -66 -55 -19 0 -23 3 -16 13 55 73 88 107 104 107 11
0 19 -2 19 -5z m113 -55 c-34 -44 -53 -60 -70 -60 -23 0 -22 3 22 60 34 44 53
60 71 60 23 0 22 -2 -23 -60z m180 48 c-51 -70 -87 -108 -104 -108 -10 0 -19
2 -19 5 0 3 19 30 41 60 31 41 48 55 66 55 19 0 23 -3 16 -12z m100 -1 c-40
-66 -79 -107 -101 -107 l-24 0 24 33 c13 17 33 44 44 59 19 28 73 42 57 15z
m-881 -49 c-15 -15 -26 -4 -18 18 5 13 9 15 18 6 9 -9 9 -15 0 -24z m60 0 c-6
-6 -15 -9 -18 -5 -4 3 -4 14 0 23 5 13 9 15 18 6 9 -9 9 -15 0 -24z m802 -124
c10 -25 7 -42 -10 -58 -13 -14 -64 -16 -400 -16 -247 0 -392 4 -405 10 -19 11
-24 35 -13 64 5 14 51 16 414 16 363 0 409 -2 414 -16z"/>
</g>
</svg>
