<svg xmlns="http://www.w3.org/2000/svg" xmlns:xlink="http://www.w3.org/1999/xlink" width="17" height="17" viewBox="0 0 17 17"><defs><path id="7uc6a" d="M41.296 167.295a7.35 7.35 0 0 0-1.692 2.627 3.066 3.066 0 1 1 4.318-4.318 7.341 7.341 0 0 0-2.627 1.691zm13.204.271c0 .947-.43 1.794-1.104 2.356a7.364 7.364 0 0 0-4.319-4.318 3.066 3.066 0 0 1 5.422 1.963zm-3.965 9.553l2.1 2.097-1.284 1.284-2.383-2.385a6.102 6.102 0 0 1-2.468.519 6.102 6.102 0 0 1-2.467-.519l-2.384 2.385-1.282-1.284 2.099-2.097a6.134 6.134 0 1 1 8.07 0zm.285-4.593a4.32 4.32 0 1 0-8.641 0 4.32 4.32 0 0 0 8.641 0zm-3.707-.255l2.384 1.012-.48 1.129-3.13-1.299v-3.637h1.226z"/></defs><g><g transform="translate(-38 -164)"><use fill="#b4b1b2" xlink:href="#7uc6a"/></g></g></svg>