<svg xmlns="http://www.w3.org/2000/svg" xmlns:xlink="http://www.w3.org/1999/xlink"><defs><path id="226pa" d="M55 273v11l-6-4v-3zm-7 2v7c0 .71-.323 1-1 1h-8c-.677 0-1-.29-1-1v-7c0-.71.323-1 1-1l8.083-.09c.678 0 .917.38.917 1.09z"/><path id="iau5a" d="M43 135h-2v-2h2zm3 0h-2v-2h2zm3 0h-2v-2h2zm-6 4h-2v-2h2zm3 0h-2v-2h2zm3 0h-2v-2h2zm2-10h-2v-3h2zm-7 0h-2v-3h2zm11 14H38v-15h3v2h4v-2h3v2h4v-2h3zm-2-12H40v10h13zm-1 4h-2v-2h2zm0 4h-2v-2h2z"/><path id="ee7pa" d="M918 34h3v3h-3zm5 0h12v3h-12zm-5-5h3v3h-3zm5 0h12v3h-12zm-5-5h3v3h-3zm17 0v3h-12v-3z"/><path id="z7p2a" d="M45.5 306.656c-4.418 0-8 2.778-8 6.205 0 1.464.655 2.81 1.749 3.873l-.608 3.923 4.672-1.824c.695.152 1.43.234 2.187.234 4.419 0 8-2.779 8-6.206 0-3.427-3.581-6.205-8-6.205z"/><path id="7uc6a" d="M41.296 167.295a7.35 7.35 0 0 0-1.692 2.627 3.066 3.066 0 1 1 4.318-4.318 7.341 7.341 0 0 0-2.627 1.691zm13.204.271c0 .947-.43 1.794-1.104 2.356a7.364 7.364 0 0 0-4.319-4.318 3.066 3.066 0 0 1 5.422 1.963zm-3.965 9.553l2.1 2.097-1.284 1.284-2.383-2.385a6.102 6.102 0 0 1-2.468.519 6.102 6.102 0 0 1-2.467-.519l-2.384 2.385-1.282-1.284 2.099-2.097a6.134 6.134 0 1 1 8.07 0zm.285-4.593a4.32 4.32 0 1 0-8.641 0 4.32 4.32 0 0 0 8.641 0zm-3.707-.255l2.384 1.012-.48 1.129-3.13-1.299v-3.637h1.226z"/><path id="rkewa" d="M960 24h3v3h-3zm5 10h3v3h-3zm-5-5h3v3h-3zm-5 0h3v3h-3zm5 5h3v3h-3zm-5 0h3v3h-3zm0-10h3v3h-3zm13 0v3h-3v-3zm-3 5h3v3h-3z"/><path id="vw4wa" d="M852.69 38.5l-4.26-4.26a6.4 6.4 0 1 1 1.81-1.81l4.26 4.26zm-7.79-5.012a4.587 4.587 0 1 0 0-9.174 4.587 4.587 0 0 0 0 9.174z"/><path id="4sw7a" d="M54 105c0 .693-.323 1-1 1 0 0-13 0-13.927.002-.955.001-1.126-.31-1.073-1.002V94c.007-.564.885-.923 1.438-1.054L52.47 89.87c.651-.153 1.302.269 1.455.944l.543 2.407-10.643 2.512L54 96zm-4.55-13.441l2.107 1.405 1.625-.383-2.108-1.406zm-3.28.775l2.108 1.405 1.625-.384-2.107-1.406zm-3.198.754l2.107 1.406 1.625-.383-2.107-1.406zm-3.27.772l2.107 1.406 1.625-.384-2.107-1.406zM53 97H39v8h14zm-5 4l-3 2v-4z"/><path id="zm74a" d="M49.053 243.808l-.053-.169v.21l.053-.041L51 250l-5.01-3.846.191-.147H45.8l.19.147L40.97 250l1.94-6.212.09.07v-.358l-.09.288L38 240.02h6.088L45.97 234l1.892 6.02H54z"/><path id="aoqna" d="M46.047 32.566l15.932-3.133v4.7H45.251z"/><path id="p5vza" d="M100.98 461.969l-.043-.137v.17l.043-.033 1.582 5.03-4.07-3.124.155-.119h-.31l.155.119-4.08 3.125 1.577-5.047.073.057v-.292l-.073.235L92 458.89h4.947l1.529-4.89 1.537 4.89H105zm18 0l-.043-.137v.17l.043-.033 1.582 5.03-4.07-3.124.155-.119h-.31l.155.119-4.08 3.125 1.577-5.047.073.057v-.292l-.073.235-3.99-3.063h4.947l1.528-4.89 1.538 4.89H123zm20 0l-.043-.137v.17l.043-.033 1.582 5.03-4.07-3.124.155-.119h-.31l.155.119-4.08 3.125 1.577-5.047.073.057v-.292l-.073.235-3.99-3.063h4.947l1.529-4.89 1.537 4.89H143zm20 0l-.043-.137v.17l.043-.033 1.582 5.03-4.07-3.124.155-.119h-.31l.155.119-4.08 3.125 1.577-5.047.073.057v-.292l-.073.235-3.99-3.063h4.947l1.529-4.89 1.537 4.89H163zm20 0l-.043-.137v.17l.043-.033 1.582 5.03-4.07-3.124.155-.119h-.31l.155.119-4.08 3.125 1.577-5.047.073.057v-.292l-.073.235-3.99-3.063h4.947l1.528-4.89 1.538 4.89H183z"/><path id="e8gsa" d="M54 200v15H39v-15zm-12 13h-2v1h2zm0-2h-2v1h2zm0-2h-2v1h2zm0-2h-2v1h2zm0-6h-2v1h2zm8 7h-7v6h7zm0-7h-7v6h7zm3 12h-2v1h2zm0-2h-2v1h2zm0-2h-2v1h2zm0-2h-2v1h2zm0-2h-2v1h2zm-11 0h-2v1h2zm0-2h-2v1h2zm11 0h-2v1h2zm0-2h-2v1h2z"/><path id="xh2ya" d="M1100 42l4-2 4 2 4-2 4 2 4-2 4 2 4-2 4 2 4-2 4 2 4-2 4 2 4-2 4 2 4-2 4 2 4-2 4 2 4-2 4 2 4-2 4 2"/><clipPath id="xh2yb"><use fill="#fff" xlink:href="#xh2ya"/></clipPath></defs><symbol id="arrow-down" viewBox="0 0 24 24"><path d="M0 7.33l2.829-2.83 9.175 9.339 9.167-9.339 2.829 2.83-11.996 12.17z"/></symbol><symbol id="cinemas" viewBox="0 0 17 11"><g><g transform="translate(-38 -273)"><use fill="#b4b1b2" xlink:href="#226pa"/></g></g></symbol><symbol id="coming-soon" viewBox="0 0 17 17"><g><g transform="translate(-38 -126)"><use fill="#b4b1b2" xlink:href="#iau5a"/></g></g></symbol><symbol id="details_small_view" viewBox="0 0 17 13"><g><g transform="translate(-918 -24)"><use fill="#cacbcc" xlink:href="#ee7pa"/></g></g></symbol><symbol id="discussions" viewBox="0 0 17 15"><g><g transform="translate(-37 -306)"><use fill="#b4b1b2" xlink:href="#z7p2a"/></g></g></symbol><symbol id="ending-soon" viewBox="0 0 17 17"><g><g transform="translate(-38 -164)"><use fill="#b4b1b2" xlink:href="#7uc6a"/></g></g></symbol><symbol id="grid_small_view" viewBox="0 0 13 13"><g><g transform="translate(-955 -24)"><use fill="#4c4145" xlink:href="#rkewa"/></g></g></symbol><symbol id="icon-clock" viewBox="0 0 24 24"><path d="M12 2c5.514 0 10 4.486 10 10s-4.486 10-10 10-10-4.486-10-10 4.486-10 10-10zm0-2c-6.627 0-12 5.373-12 12s5.373 12 12 12 12-5.373 12-12-5.373-12-12-12zm5.848 12.459c.202.038.202.333.001.372-1.907.361-6.045 1.111-6.547 1.111-.719 0-1.301-.582-1.301-1.301 0-.512.77-5.447 1.125-7.445.034-.192.312-.181.343.014l.985 6.238 5.394 1.011z"/></symbol><symbol id="magnifier" viewBox="0 0 17 17"><g><g transform="translate(-838 -22)"><use fill="#4c4145" xlink:href="#vw4wa"/></g></g></symbol><symbol id="now-playing" viewBox="0 0 17 17"><g><g transform="translate(-38 -89)"><use fill="#fff" xlink:href="#4sw7a"/></g></g></symbol><symbol id="rates" viewBox="0 0 16 16"><g><g transform="translate(-38 -234)"><use fill="#b4b1b2" xlink:href="#zm74a"/></g></g></symbol><symbol id="scarf" viewBox="0 0 17 6"><g><g transform="translate(-45 -29)"><use fill="#ffd564" xlink:href="#aoqna"/></g></g></symbol><symbol id="stars" viewBox="0 0 91 13"><g><g transform="translate(-92 -454)"><use fill="#ffd564" xlink:href="#p5vza"/></g></g></symbol><symbol id="trailers" viewBox="0 0 15 15"><g><g transform="translate(-39 -200)"><use fill="#b4b1b2" xlink:href="#e8gsa"/></g></g></symbol><symbol id="wave_outline" viewBox="0 0 88 2"><g><g transform="translate(-1100 -40)"><use fill="#b4b1b2" xlink:href="#xh2ya"/><use fill="#fff" fill-opacity="0" stroke="#4c4145" stroke-miterlimit="50" stroke-width="2" clip-path="url(&quot;#xh2yb&quot;)" xlink:href="#xh2ya"/></g></g></symbol></svg>